<svg width="40" height="32" viewBox="0 0 40 32" fill="none" xmlns="http://www.w3.org/2000/svg">
<path d="M34 28V32H6V28H34ZM36 26V6C36 4.89543 35.1046 4 34 4H6C4.89543 4 4 4.89543 4 6V26C4 27.1046 4.89543 28 6 28V32L5.69141 31.9922C2.52111 31.8316 0 29.2102 0 26V6C0 2.68629 2.68629 1.28851e-07 6 0H34C37.3137 0 40 2.68629 40 6V26C40 29.2102 37.4789 31.8316 34.3086 31.9922L34 32V28C35.1046 28 36 27.1046 36 26Z" fill="#4C4C4C"/>
<path d="M38.3711 6.45605L25.4834 18.5859C22.403 21.4851 17.597 21.4851 14.5166 18.5859L1.62891 6.45605L4.37109 3.54395L17.2588 15.6729C18.799 17.1225 21.201 17.1225 22.7412 15.6729L35.6289 3.54395L38.3711 6.45605Z" fill="#4C4C4C"/>
</svg>
