<svg width="32" height="32" viewBox="0 0 32 32" fill="none" xmlns="http://www.w3.org/2000/svg">
<path d="M0 4C0 2.89543 0.895431 2 2 2H30C31.1046 2 32 2.89543 32 4V4C32 5.10457 31.1046 6 30 6H2C0.895431 6 0 5.10457 0 4V4Z" fill="#4C4C4C" fill-opacity="0.768627"/>
<path d="M0 16C0 14.8954 0.895431 14 2 14H30C31.1046 14 32 14.8954 32 16V16C32 17.1046 31.1046 18 30 18H2C0.895431 18 0 17.1046 0 16V16Z" fill="#4C4C4C" fill-opacity="0.768627"/>
<path d="M0 28C0 26.8954 0.895431 26 2 26H30C31.1046 26 32 26.8954 32 28V28C32 29.1046 31.1046 30 30 30H2C0.895431 30 0 29.1046 0 28V28Z" fill="#4C4C4C" fill-opacity="0.768627"/>
<path d="M28 4C28 6.20914 26.2091 8 24 8C21.7909 8 20 6.20914 20 4C20 1.79086 21.7909 0 24 0C26.2091 0 28 1.79086 28 4Z" fill="#4C4C4C" fill-opacity="0.768627"/>
<path d="M12 16C12 18.2091 10.2091 20 8 20C5.79086 20 4 18.2091 4 16C4 13.7909 5.79086 12 8 12C10.2091 12 12 13.7909 12 16Z" fill="#4C4C4C" fill-opacity="0.768627"/>
<path d="M28 28C28 30.2091 26.2091 32 24 32C21.7909 32 20 30.2091 20 28C20 25.7909 21.7909 24 24 24C26.2091 24 28 25.7909 28 28Z" fill="#4C4C4C" fill-opacity="0.768627"/>
</svg>
