<svg width="32" height="32" viewBox="0 0 32 32" fill="none" xmlns="http://www.w3.org/2000/svg">
<path d="M1.77789 1.77778C2.75973 0.795938 4.3516 0.795938 5.33344 1.77778L30.2223 26.6667C31.2041 27.6485 31.2041 29.2404 30.2223 30.2222V30.2222C29.2405 31.2041 27.6486 31.2041 26.6667 30.2222L1.77789 5.33334C0.796055 4.3515 0.796051 2.75962 1.77789 1.77778V1.77778Z" fill="white"/>
<path d="M30.2222 1.77778C29.2404 0.795938 27.6485 0.795938 26.6667 1.77778L1.77784 26.6667C0.795999 27.6485 0.795996 29.2404 1.77783 30.2222V30.2222C2.75967 31.2041 4.35155 31.2041 5.33338 30.2222L30.2222 5.33334C31.2041 4.3515 31.2041 2.75962 30.2222 1.77778V1.77778Z" fill="white"/>
</svg>
