<svg width="44" height="44" viewBox="0 0 44 44" fill="none" xmlns="http://www.w3.org/2000/svg">
<path d="M24.7487 21.9203L34.6482 31.8198C35.4293 32.6009 35.4293 33.8672 34.6482 34.6482V34.6482C33.8672 35.4293 32.6009 35.4293 31.8198 34.6482L21.9203 24.7487L24.7487 21.9203Z" fill="#4C4C4C"/>
<path d="M22.6274 11.3137C19.5032 8.18951 14.4379 8.18951 11.3137 11.3137C8.18951 14.4379 8.18951 19.5032 11.3137 22.6274C14.4379 25.7516 19.5032 25.7516 22.6274 22.6274L25.4558 25.4558C20.7696 30.1421 13.1716 30.1421 8.48528 25.4558C3.79899 20.7696 3.79899 13.1716 8.48528 8.48528C13.1716 3.79899 20.7696 3.79899 25.4558 8.48528C30.1421 13.1716 30.1421 20.7696 25.4558 25.4558L22.6274 22.6274C25.7516 19.5032 25.7516 14.4379 22.6274 11.3137Z" fill="#4C4C4C"/>
</svg>
