<svg width="32" height="28" viewBox="0 0 32 28" fill="none" xmlns="http://www.w3.org/2000/svg">
<path d="M0 2C0 0.895431 0.895431 0 2 0H30C31.1046 0 32 0.895431 32 2V2C32 3.10457 31.1046 4 30 4H2C0.895431 4 0 3.10457 0 2V2Z" fill="white"/>
<path d="M0 14C0 12.8954 0.895431 12 2 12H30C31.1046 12 32 12.8954 32 14V14C32 15.1046 31.1046 16 30 16H2C0.895431 16 0 15.1046 0 14V14Z" fill="white"/>
<path d="M0 26C0 24.8954 0.895431 24 2 24H30C31.1046 24 32 24.8954 32 26V26C32 27.1046 31.1046 28 30 28H2C0.895431 28 0 27.1046 0 26V26Z" fill="white"/>
</svg>
