<svg width="42" height="39" viewBox="0 0 42 39" fill="none" xmlns="http://www.w3.org/2000/svg">
<path d="M14 36C14 37.6569 15.3431 39 17 39C18.6569 39 20 37.6569 20 36C20 34.3431 18.6569 33 17 33C15.3431 33 14 34.3431 14 36Z" fill="white"/>
<path d="M30 36C30 37.6569 31.3431 39 33 39C34.6569 39 36 37.6569 36 36C36 34.3431 34.6569 33 33 33C31.3431 33 30 34.3431 30 36Z" fill="white"/>
<path d="M10.6758 25H33.5557V21H13.9219L10.9785 7H35.6582C36.9282 7 37.8764 8.16829 37.6153 9.41113L35.5137 19.4111C35.3191 20.3369 34.5017 21 33.5557 21V25L33.8213 24.9941C36.5455 24.8747 38.8622 22.9247 39.4278 20.2344L41.5303 10.2344C42.2896 6.62214 39.6429 3.21896 36.0127 3.00977L35.6582 3H6.0508L10.6758 25Z" fill="white"/>
<path d="M10.9995 12V16H39.4058V12H10.9995Z" fill="white"/>
<path d="M4.27832 0C7.09907 0 9.5392 1.96485 10.1406 4.7207L14.4238 24.3525C14.8247 26.1899 16.4515 27.5 18.332 27.5H34C35.1046 27.5 36 28.3954 36 29.5C36 30.6046 35.1046 31.5 34 31.5H18.332C14.5709 31.5 11.3174 28.8798 10.5156 25.2051L6.23242 5.57324C6.03181 4.65481 5.21845 4 4.27832 4H2C0.89543 4 0 3.10457 0 2C0 0.89543 0.89543 0 2 0H4.27832Z" fill="white"/>
</svg>
